<svg xmlns="http://www.w3.org/2000/svg" viewBox="0 0 256 256" enable-background="new 0 0 256 256"><style type="text/css">.st0{fill:#BC9D6D;}</style><path class="st0" d="M62.2 215.8c2.3.2 4.3-1.4 4.8-3.6-.2 2.4 1.6 4.6 4 4.8 2.4.2 4.6-1.6 4.8-4 .2-2.6.9-9.3 1.1-11.7h.2c15.9 1.3 33.8-10.5 37.4-35.7 1.5-10.9-1.3-21.7-7.9-30.5-4.5-6-10.4-10.4-17.1-13.2.5-1 .9-2 1-3.2.4-2.9-.3-5.7-2.1-8-1.7-2.3-4.3-3.8-7.2-4.2-5.3-.8-10.5 2.6-12 7.8l-.3 1.5c-.2 1.1-.1 2.2.1 3.3-1.2.1-2.3.3-3.5.6l-2.8-7.7c2.9-2 5-4.9 6-8.4.5-1.7.7-3.5.6-5.3l-1.3-19.7c-.1-1.8-.6-3.6-1.3-5.2l10.5-8.7.7.4c3.7 1.8 8 2.1 11.9.8l18.7-6.4c4.8-1.6 8.6-5.6 10-10.5v-.1l9.3-.2c1.5 3.8 4.5 7 8.5 8.6l18.2 7.5c3.8 1.6 7.9 1.6 11.7 0l4.1 5.2c-.9 1.3-1.5 2.7-2 4.3-.6 2.1-.7 4.2-.4 6.4l2.7 19.6c.8 5.8 4.8 10.5 9.9 12.4l-.2 6.5c-13.7.4-26.9 7.7-34.3 20.4-2.3 4-4 8-5.1 11.9-4.9 17.2 1.6 32.1 12.5 39.2.1 0 .1.1.1.1-1.3 2.1-4.9 7.8-6.3 10-1.3 2.1-.7 4.8 1.4 6.1 2.1 1.3 4.8.7 6.1-1.4-.2.3-.3.6-.4.9-.5 1.9.2 3.9 1.9 5 2.1 1.3 4.8.7 6.1-1.4.5-.9 4.9-7.8 6.4-10.3.1 0 .1 0 .2.1 14.2 7.2 35.3 3 48-19 9.6-16.5 6.3-37-6.7-49.8.8-.7 1.6-1.6 2.1-2.6.5-.8.8-1.6 1.1-2.5 1.4-4.8-.7-9.9-5-12.4-5.2-3-11.8-1.2-14.8 3.9-.5.8-.8 1.6-1.1 2.5-.1.2-.1.4-.1.7-1.1-.3-2.3-.6-3.4-.8l.2-6.6c5.5-1.2 10-5.4 11.6-10.9.6-2.1.7-4.2.4-6.4l-2.7-19.5c-1.2-8.5-9-14.5-17.5-13.3-1.4.2-2.8.6-4.1 1.2l-4-5c.6-.9 1.2-1.9 1.6-3 3.3-8.1-.6-17.1-8.5-20.3l-18.2-7.5c-3.8-1.6-8.1-1.6-11.9 0-3.8 1.6-6.8 4.6-8.4 8.4l-.6 1.7c-.1.4-.2.8-.3 1.1l-8.6.2c0-.1 0-.2-.1-.3-1.3-3.9-4.1-7.1-7.9-9-3.7-1.8-8-2.1-11.9-.8l-18.7 6.4c-4.8 1.6-8.6 5.6-10 10.5-.9 3.1-.8 6.3.2 9.3.2.7.6 1.4.9 2.1l-10.1 8.3c-2.8-1.8-6.1-2.7-9.5-2.5-6.6.4-12.2 5-14 11.3-.5 1.7-.7 3.5-.6 5.3l1.3 19.7c.6 8.4 7.7 14.8 16 14.5l2.8 7.6c-10.9 4.8-19.5 14.3-22.9 26.3-.5 1.8-.9 3.7-1.2 5.5-3.5 25.1 10.4 41.5 26 44.6.1 0 .1 0 .2.1-.3 2.9-1.1 11.1-1.2 12.1.7 2.6 2.5 4.7 4.9 4.9zm147.5-39.4c-7.5 13-22.4 22.5-36.3 15.5-4.3-2.2-9.3-1-11.5 2.7 2.1-3.8.6-8.7-3.3-11.3-13-8.6-12.1-26.2-4.6-39.2 8.9-15.3 28.6-20.6 44-11.7 15.4 9 20.6 28.7 11.7 44zm-7.9-54.3c.5-.9 1.7-1.2 2.7-.7.8.4 1.1 1.4.9 2.2 0 .2-.1.3-.2.4-.5.9-1.7 1.2-2.6.7-1-.5-1.3-1.7-.8-2.6zm-11.6-44.3l2.7 19.5c.1.9.1 1.8-.2 2.7-.4 1.5-1.4 2.8-2.7 3.7l.2-6.3c.1-2.5-1.8-4.5-4.3-4.6-2.1-.1-3.9 1.3-4.4 3.2-.1.3-.2.7-.2 1.1l-.2 5.3c-.8-.9-1.3-2-1.5-3.3l-2.6-19.5c-.1-.5-.1-.9 0-1.4l3.1 3.9c1.5 1.9 4.3 2.3 6.3.7 1.9-1.5 2.3-4.3.7-6.3l-3.6-4.5c3.3 0 6.3 2.4 6.7 5.8zm-50.3-41c1.6-.7 3.5-.7 5.1 0l18.2 7.5c2.9 1.2 4.5 4.2 4 7.2l-2.1-2.7c-1.5-1.9-4.3-2.3-6.3-.7-.8.6-1.3 1.4-1.5 2.3-.4 1.3-.1 2.8.8 4l2.2 2.8c-.7 0-1.5-.2-2.2-.5l-18.2-7.5c-.4-.2-.8-.4-1.1-.6l3.4-.1c2.5 0 4.4-2.1 4.4-4.5 0-2.5-2.1-4.4-4.5-4.4l-5.3.1c.7-1.3 1.7-2.3 3.1-2.9zm-57 8l18.7-6.4c1.7-.6 3.5-.5 5.1.3.7.4 1.4.9 1.9 1.4l-3.5.1c-2 0-3.7 1.4-4.2 3.2-.1.4-.2.9-.2 1.3 0 2.5 2.1 4.4 4.5 4.4l3.5-.1c-.8.9-1.7 1.5-2.8 1.9l-18.7 6.4-1.3.3 3.2-2.7c1.9-1.6 2.2-4.4.6-6.3-1.6-1.9-4.4-2.2-6.3-.6l-4.9 4.1c-.4-3 1.4-6.3 4.4-7.3zm-35.6 54.9l-1.3-19.7c-.2-3.6 2.7-6.9 6.2-7.1h1.1l-3 2.5c-.7.6-1.2 1.4-1.4 2.2-.4 1.4-.1 2.9.8 4.1 1.6 1.9 4.4 2.2 6.3.6l3.3-2.7 1.3 19.3c0 .8 0 1.5-.2 2.3-.2.6-.5 1.2-.8 1.8l-1.6-4.4c-.8-2.3-3.4-3.5-5.7-2.6-1.4.5-2.4 1.6-2.8 3-.2.9-.2 1.8.1 2.8l1.3 3.6c-2-1.3-3.4-3.3-3.6-5.7zm31 18.8c-.2-.2-.5-.7-.4-1.4.1-1.1 1.1-1.8 2.2-1.6.7.1 1.1.5 1.3.8.2.2.5.7.4 1.4 0 .1 0 .2-.1.3-.3.9-1.2 1.5-2.1 1.4-.7-.2-1.1-.6-1.3-.9zm-36.3 37c2.5-17.6 18.8-29.8 36.4-27.4 8.5 1.2 16.1 5.6 21.2 12.5 5.2 6.9 7.4 15.3 6.2 23.9-2.8 19.7-16.1 29-27.8 28-4.7-.4-8.9 2.6-9.6 6.8.5-4.2-2.7-8.3-7.4-9.2-15.3-3.1-21.1-19.7-19-34.6z" id="Your_Icon_2_"/></svg>