<?xml version="1.0" encoding="utf-8"?>
<!-- Generator: Adobe Illustrator 18.1.1, SVG Export Plug-In . SVG Version: 6.00 Build 0)  -->
<svg version="1.1" id="Layer_1" xmlns="http://www.w3.org/2000/svg" xmlns:xlink="http://www.w3.org/1999/xlink" x="0px" y="0px"
	 viewBox="0 0 256 256" style="enable-background:new 0 0 256 256;" xml:space="preserve">
<style type="text/css">
	.st0{fill:#BC9D6D;}
</style>
<g id="Your_Icon_2_">
	<path class="st0" d="M62.2,215.8c2.3,0.2,4.3-1.4,4.8-3.6c-0.2,2.4,1.6,4.6,4,4.8c2.4,0.2,4.6-1.6,4.8-4c0.2-2.6,0.9-9.3,1.1-11.7
		c0.1,0,0.1,0,0.2,0c15.9,1.3,33.8-10.5,37.4-35.7c1.5-10.9-1.3-21.7-7.9-30.5c-4.5-6-10.4-10.4-17.1-13.2c0.5-1,0.9-2,1-3.2
		c0.4-2.9-0.3-5.7-2.1-8c-1.7-2.3-4.3-3.8-7.2-4.2c-5.3-0.8-10.5,2.6-12,7.8c-0.1,0.5-0.2,1-0.3,1.5c-0.2,1.1-0.1,2.2,0.1,3.3
		c-1.2,0.1-2.3,0.3-3.5,0.6l-2.8-7.7c2.9-2,5-4.9,6-8.4c0.5-1.7,0.7-3.5,0.6-5.3l-1.3-19.7c-0.1-1.8-0.6-3.6-1.3-5.2l10.5-8.7
		c0.2,0.1,0.5,0.3,0.7,0.4c3.7,1.8,8,2.1,11.9,0.8l18.7-6.4c4.8-1.6,8.6-5.6,10-10.5c0,0,0-0.1,0-0.1l9.3-0.2c1.5,3.8,4.5,7,8.5,8.6
		l18.2,7.5c3.8,1.6,7.9,1.6,11.7,0l4.1,5.2c-0.9,1.3-1.5,2.7-2,4.3c-0.6,2.1-0.7,4.2-0.4,6.4l2.7,19.6c0.8,5.8,4.8,10.5,9.9,12.4
		l-0.2,6.5c-13.7,0.4-26.9,7.7-34.3,20.4c-2.3,4-4,8-5.1,11.9c-4.9,17.2,1.6,32.1,12.5,39.2c0.1,0,0.1,0.1,0.1,0.1
		c-1.3,2.1-4.9,7.8-6.3,10c-1.3,2.1-0.7,4.8,1.4,6.1c2.1,1.3,4.8,0.7,6.1-1.4l0,0c-0.2,0.3-0.3,0.6-0.4,0.9c-0.5,1.9,0.2,3.9,1.9,5
		c2.1,1.3,4.8,0.7,6.1-1.4c0.5-0.9,4.9-7.8,6.4-10.3c0.1,0,0.1,0,0.2,0.1c14.2,7.2,35.3,3,48-19c9.6-16.5,6.3-37-6.7-49.8
		c0.8-0.7,1.6-1.6,2.1-2.6c0.5-0.8,0.8-1.6,1.1-2.5c1.4-4.8-0.7-9.9-5-12.4c-5.2-3-11.8-1.2-14.8,3.9c-0.5,0.8-0.8,1.6-1.1,2.5
		c-0.1,0.2-0.1,0.4-0.1,0.7c-1.1-0.3-2.3-0.6-3.4-0.8l0.2-6.6c5.5-1.2,10-5.4,11.6-10.9c0.6-2.1,0.7-4.2,0.4-6.4l-2.7-19.5
		c-1.2-8.5-9-14.5-17.5-13.3c-1.4,0.2-2.8,0.6-4.1,1.2l-4-5c0.6-0.9,1.2-1.9,1.6-3c3.3-8.1-0.6-17.1-8.5-20.3l-18.2-7.5
		c-3.8-1.6-8.1-1.6-11.9,0c-3.8,1.6-6.8,4.6-8.4,8.4c-0.2,0.6-0.4,1.1-0.6,1.7c-0.1,0.4-0.2,0.8-0.3,1.1l-8.6,0.2
		c0-0.1,0-0.2-0.1-0.3c-1.3-3.9-4.1-7.1-7.9-9c-3.7-1.8-8-2.1-11.9-0.8l-18.7,6.4c-4.8,1.6-8.6,5.6-10,10.5
		c-0.9,3.1-0.8,6.3,0.2,9.3c0.2,0.7,0.6,1.4,0.9,2.1l-10.1,8.3c-2.8-1.8-6.1-2.7-9.5-2.5c-6.6,0.4-12.2,5-14,11.3
		c-0.5,1.7-0.7,3.5-0.6,5.3l1.3,19.7c0.6,8.4,7.7,14.8,16,14.5l2.8,7.6c-10.9,4.8-19.5,14.3-22.9,26.3c-0.5,1.8-0.9,3.7-1.2,5.5
		c-3.5,25.1,10.4,41.5,26,44.6c0.1,0,0.1,0,0.2,0.1c-0.3,2.9-1.1,11.1-1.2,12.1C58,213.5,59.8,215.6,62.2,215.8z M209.7,176.4
		c-7.5,13-22.4,22.5-36.3,15.5c-4.3-2.2-9.3-1-11.5,2.7c2.1-3.8,0.6-8.7-3.3-11.3c-13-8.6-12.1-26.2-4.6-39.2
		c8.9-15.3,28.6-20.6,44-11.7C213.4,141.4,218.6,161.1,209.7,176.4z M201.8,122.1c0.5-0.9,1.7-1.2,2.7-0.7c0.8,0.4,1.1,1.4,0.9,2.2
		c0,0.2-0.1,0.3-0.2,0.4c-0.5,0.9-1.7,1.2-2.6,0.7c0,0,0,0,0,0c0,0,0,0,0,0C201.6,124.2,201.3,123,201.8,122.1z M190.2,77.8
		l2.7,19.5c0.1,0.9,0.1,1.8-0.2,2.7c-0.4,1.5-1.4,2.8-2.7,3.7l0.2-6.3c0.1-2.5-1.8-4.5-4.3-4.6c-2.1-0.1-3.9,1.3-4.4,3.2
		c-0.1,0.3-0.2,0.7-0.2,1.1l-0.2,5.3c-0.8-0.9-1.3-2-1.5-3.3L177,79.6c-0.1-0.5-0.1-0.9,0-1.4l3.1,3.9c1.5,1.9,4.3,2.3,6.3,0.7
		c1.9-1.5,2.3-4.3,0.7-6.3l-3.6-4.5C186.8,72,189.8,74.4,190.2,77.8z M139.9,36.8c1.6-0.7,3.5-0.7,5.1,0l18.2,7.5
		c2.9,1.2,4.5,4.2,4,7.2l-2.1-2.7c-1.5-1.9-4.3-2.3-6.3-0.7c-0.8,0.6-1.3,1.4-1.5,2.3c-0.4,1.3-0.1,2.8,0.8,4l2.2,2.8
		c-0.7,0-1.5-0.2-2.2-0.5l-18.2-7.5c-0.4-0.2-0.8-0.4-1.1-0.6l3.4-0.1c2.5,0,4.4-2.1,4.4-4.5c0-2.5-2.1-4.4-4.5-4.4l-5.3,0.1
		C137.5,38.4,138.5,37.4,139.9,36.8z M82.9,44.8l18.7-6.4c1.7-0.6,3.5-0.5,5.1,0.3c0.7,0.4,1.4,0.9,1.9,1.4l-3.5,0.1
		c-2,0-3.7,1.4-4.2,3.2c-0.1,0.4-0.2,0.9-0.2,1.3c0,2.5,2.1,4.4,4.5,4.4l3.5-0.1c-0.8,0.9-1.7,1.5-2.8,1.9l-18.7,6.4
		c-0.4,0.1-0.9,0.2-1.3,0.3l3.2-2.7c1.9-1.6,2.2-4.4,0.6-6.3c-1.6-1.9-4.4-2.2-6.3-0.6l-4.9,4.1C78.1,49.1,79.9,45.8,82.9,44.8z
		 M47.3,99.7L46,80c-0.2-3.6,2.7-6.9,6.2-7.1c0.4,0,0.7,0,1.1,0l-3,2.5c-0.7,0.6-1.2,1.4-1.4,2.2c-0.4,1.4-0.1,2.9,0.8,4.1
		c1.6,1.9,4.4,2.2,6.3,0.6l3.3-2.7l1.3,19.3c0,0.8,0,1.5-0.2,2.3c-0.2,0.6-0.5,1.2-0.8,1.8L58,98.6c-0.8-2.3-3.4-3.5-5.7-2.6
		c-1.4,0.5-2.4,1.6-2.8,3c-0.2,0.9-0.2,1.8,0.1,2.8l1.3,3.6C48.9,104.1,47.5,102.1,47.3,99.7z M78.3,118.5c-0.2-0.2-0.5-0.7-0.4-1.4
		c0.1-1.1,1.1-1.8,2.2-1.6c0.7,0.1,1.1,0.5,1.3,0.8c0.2,0.2,0.5,0.7,0.4,1.4c0,0.1,0,0.2-0.1,0.3c-0.3,0.9-1.2,1.5-2.1,1.4l0,0
		c0,0,0,0,0,0C78.9,119.2,78.5,118.8,78.3,118.5z M42,155.5c2.5-17.6,18.8-29.8,36.4-27.4c8.5,1.2,16.1,5.6,21.2,12.5
		c5.2,6.9,7.4,15.3,6.2,23.9c-2.8,19.7-16.1,29-27.8,28c-4.7-0.4-8.9,2.6-9.6,6.8c0.5-4.2-2.7-8.3-7.4-9.2
		C45.7,187,39.9,170.4,42,155.5z"/>
</g>
<g>
</g>
<g>
</g>
<g>
</g>
<g>
</g>
<g>
</g>
<g>
</g>
</svg>
