<?xml version="1.0" encoding="utf-8"?>
<!-- Generator: Adobe Illustrator 18.1.1, SVG Export Plug-In . SVG Version: 6.00 Build 0)  -->
<svg version="1.1" id="Layer_1" xmlns="http://www.w3.org/2000/svg" xmlns:xlink="http://www.w3.org/1999/xlink" x="0px" y="0px"
	 viewBox="0 0 256 256" style="enable-background:new 0 0 256 256;" xml:space="preserve">
<style type="text/css">
	.st0{fill:#BC9D6D;}
</style>
<g>
	<path class="st0" d="M187.3,138.3C187.3,138.3,187.3,138.3,187.3,138.3c11.1-3.3,22.5-7.8,33.5-13.8c17.6-10.3,26.7,0.4,20.1,16.5
		c-5.6,15.3-35.2,43.6-61.1,50.1c-9.9-7-29.4-11.8-51.8-11.9c-22.4,0.1-41.9,4.9-51.8,11.9c-25.9-6.5-55.5-34.9-61.1-50.1
		c-6.5-16.1,2.5-26.8,20.1-16.5c11,6,22.5,10.5,33.5,13.8c23.7,7.1,45.4,8.9,56.8,8.9l6.2,0C143.1,147.1,164.3,145.2,187.3,138.3z"
		/>
	<g id="XMLID_1_">
		<path class="st0" d="M155.3,66.6c9.2,4.6,24.2,48,30,65.8c-22.3,6.5-42.6,8.2-53.7,8.4l-6.2,0c-11.1,0-31.9-1.7-54.9-8.3
			c5.8-17.8,20.8-61.2,30.1-65.8c10.6-5.3,19.6,3.5,27,4.3h-1.4c0.6,0.1,1.2,0.1,1.8,0c0.6,0.1,1.2,0,1.8,0h-1.4
			C135.7,70,144.7,61.3,155.3,66.6z M151.7,100.3c0-1.9-1.6-3.5-3.5-3.5c-1.8,0-3.2,1.3-3.5,3L134,98.2l-4.7-9.6
			c1.3-0.5,2.2-1.8,2.2-3.2c0-1.9-1.6-3.5-3.5-3.5s-3.5,1.6-3.5,3.5c0,1.5,0.9,2.7,2.2,3.2l-4.7,9.6l-10.8,1.6c-0.2-1.7-1.7-3-3.5-3
			c-1.9,0-3.5,1.6-3.5,3.5c0,1.9,1.6,3.5,3.5,3.5c1.2,0,2.2-0.6,2.9-1.5l7.6,7.5l-1.9,11.2c-0.4-0.2-0.9-0.3-1.4-0.3
			c-1.9,0-3.5,1.6-3.5,3.5s1.6,3.5,3.5,3.5c1.9,0,3.5-1.6,3.5-3.5c0-0.7-0.2-1.4-0.6-2l10.2-5.4l10.1,5.3c-0.4,0.6-0.6,1.2-0.6,2
			c0,1.9,1.6,3.5,3.5,3.5c1.9,0,3.5-1.6,3.5-3.5s-1.6-3.5-3.5-3.5c-0.5,0-0.9,0.1-1.4,0.3l-1.9-11.2l7.6-7.4
			c0.6,0.9,1.7,1.5,2.8,1.5C150.2,103.7,151.7,102.2,151.7,100.3z"/>
	</g>
</g>
<g>
</g>
<g>
</g>
<g>
</g>
<g>
</g>
<g>
</g>
<g>
</g>
</svg>
