<svg xmlns="http://www.w3.org/2000/svg" viewBox="0 0 256 256" enable-background="new 0 0 256 256"><style type="text/css">.st0{fill:#BC9D6D;}</style><path class="st0" d="M187.3 138.3c11.1-3.3 22.5-7.8 33.5-13.8 17.6-10.3 26.7.4 20.1 16.5-5.6 15.3-35.2 43.6-61.1 50.1-9.9-7-29.4-11.8-51.8-11.9-22.4.1-41.9 4.9-51.8 11.9-25.9-6.5-55.5-34.9-61.1-50.1-6.5-16.1 2.5-26.8 20.1-16.5 11 6 22.5 10.5 33.5 13.8 23.7 7.1 45.4 8.9 56.8 8.9h6.2c11.4-.1 32.6-2 55.6-8.9z"/><path class="st0" d="M155.3 66.6c9.2 4.6 24.2 48 30 65.8-22.3 6.5-42.6 8.2-53.7 8.4h-6.2c-11.1 0-31.9-1.7-54.9-8.3 5.8-17.8 20.8-61.2 30.1-65.8 10.6-5.3 19.6 3.5 27 4.3h-1.4c.6.1 1.2.1 1.8 0 .6.1 1.2 0 1.8 0h-1.4c7.3-1 16.3-9.7 26.9-4.4zm-3.6 33.7c0-1.9-1.6-3.5-3.5-3.5-1.8 0-3.2 1.3-3.5 3l-10.7-1.6-4.7-9.6c1.3-.5 2.2-1.8 2.2-3.2 0-1.9-1.6-3.5-3.5-3.5s-3.5 1.6-3.5 3.5c0 1.5.9 2.7 2.2 3.2l-4.7 9.6-10.8 1.6c-.2-1.7-1.7-3-3.5-3-1.9 0-3.5 1.6-3.5 3.5s1.6 3.5 3.5 3.5c1.2 0 2.2-.6 2.9-1.5l7.6 7.5-1.9 11.2c-.4-.2-.9-.3-1.4-.3-1.9 0-3.5 1.6-3.5 3.5s1.6 3.5 3.5 3.5 3.5-1.6 3.5-3.5c0-.7-.2-1.4-.6-2l10.2-5.4 10.1 5.3c-.4.6-.6 1.2-.6 2 0 1.9 1.6 3.5 3.5 3.5s3.5-1.6 3.5-3.5-1.6-3.5-3.5-3.5c-.5 0-.9.1-1.4.3l-1.9-11.2 7.6-7.4c.6.9 1.7 1.5 2.8 1.5 2.1-.1 3.6-1.6 3.6-3.5z" id="XMLID_1_"/></svg>